<?xml version="1.0" encoding="utf-8"?>
<!-- Generator: Adobe Illustrator 16.0.0, SVG Export Plug-In . SVG Version: 6.00 Build 0)  -->
<!DOCTYPE svg PUBLIC "-//W3C//DTD SVG 1.1//EN" "http://www.w3.org/Graphics/SVG/1.1/DTD/svg11.dtd">
<svg version="1.1" id="Layer_1" xmlns="http://www.w3.org/2000/svg" xmlns:xlink="http://www.w3.org/1999/xlink" x="0px" y="0px"
	 width="72px" height="72px" viewBox="0 0 72 72" enable-background="new 0 0 72 72" xml:space="preserve">
<circle fill-rule="evenodd" clip-rule="evenodd" fill="#82AF40" cx="36" cy="36" r="36"/>
<path fill-rule="evenodd" clip-rule="evenodd" fill="#FFFFFF" d="M18.404,49.504c-0.644,0.671-1.257,1.366-1.938,1.986
	c-0.238,0.217-0.706,0.419-0.951,0.325c-0.239-0.092-0.456-0.572-0.46-0.885c-0.036-2.572-0.026-5.145-0.017-7.717
	c0.003-0.84,0.189-1.023,1.016-1.025c2.547-0.007,5.095-0.017,7.643,0.016c0.324,0.004,0.887,0.217,0.915,0.398
	c0.053,0.343-0.108,0.818-0.349,1.088c-0.642,0.722-1.373,1.365-2.109,2.079c2.84,3.488,6.612,4.873,10.821,5.585
	c0-5.096,0-10.101,0-15.176c-1.36,0-2.679,0.002-3.997,0c-1.411-0.003-1.942-0.528-1.952-1.935c-0.006-0.8-0.019-1.599,0.005-2.398
	c0.033-1.081,0.606-1.637,1.702-1.648c1.396-0.015,2.791-0.004,4.283-0.004c0-1.222,0.02-2.39-0.019-3.556
	c-0.007-0.192-0.233-0.425-0.417-0.556c-2.693-1.926-3.112-5.14-1.983-7.441c1.402-2.858,4.372-4.116,7.356-3.089
	c2.141,0.738,3.514,2.3,3.914,4.532c0.426,2.377-0.362,4.391-2.304,5.868c-0.431,0.328-0.617,0.635-0.597,1.165
	c0.037,0.993,0.011,1.989,0.011,3.077c1.389,0,2.703-0.001,4.018,0.001c1.464,0.002,1.969,0.509,1.977,1.981
	c0.003,0.699,0.007,1.399-0.001,2.098c-0.017,1.372-0.547,1.9-1.907,1.904c-1.322,0.004-2.645,0.001-4.027,0.001
	c0,5.047,0,10.052,0,15.161c4.179-0.672,7.935-2.083,10.811-5.563c-0.715-0.694-1.441-1.337-2.084-2.054
	c-0.247-0.274-0.5-0.797-0.393-1.062c0.103-0.255,0.666-0.449,1.03-0.454c2.472-0.039,4.945-0.022,7.417-0.02
	c0.981,0.001,1.142,0.153,1.144,1.126c0.006,2.522,0.02,5.045-0.02,7.567c-0.005,0.333-0.226,0.808-0.488,0.946
	c-0.203,0.106-0.697-0.134-0.943-0.354c-0.669-0.597-1.274-1.265-1.942-1.942c-4.751,5.175-10.8,7.207-17.586,7.212
	C29.206,56.749,23.187,54.691,18.404,49.504z M36.004,22.692c0.783-0.002,1.463-0.69,1.475-1.489
	c0.012-0.789-0.661-1.489-1.449-1.508c-0.81-0.018-1.534,0.706-1.52,1.52C34.524,21.996,35.232,22.695,36.004,22.692z"/>
</svg>
