<?xml version="1.0" encoding="utf-8"?>
<!-- Generator: Adobe Illustrator 16.0.0, SVG Export Plug-In . SVG Version: 6.00 Build 0)  -->
<!DOCTYPE svg PUBLIC "-//W3C//DTD SVG 1.1//EN" "http://www.w3.org/Graphics/SVG/1.1/DTD/svg11.dtd">
<svg version="1.1" id="Layer_1" xmlns="http://www.w3.org/2000/svg" xmlns:xlink="http://www.w3.org/1999/xlink" x="0px" y="0px"
	 width="62.994px" height="62.994px" viewBox="0 -2.14 62.994 62.994" enable-background="new 0 -2.14 62.994 62.994"
	 xml:space="preserve">
<path opacity="0.3" d="M61.994,30.424c0,16.8-13.63,30.43-30.43,30.43c-16.81,0-30.43-13.63-30.43-30.43
	c0-16.81,13.62-30.43,30.43-30.43C48.365-0.006,61.994,13.614,61.994,30.424z"/>
<path fill="#FFFFFF" d="M31.564-2.14c-16.806,0-30.427,13.621-30.427,30.427c0,16.804,13.621,30.427,30.427,30.427
	c16.805,0,30.428-13.623,30.428-30.427C61.991,11.481,48.368-2.14,31.564-2.14z M39.248,29.427h-6.545v6.545h-2.292v-6.545h-6.535
	v-2.292h6.535V20.6h2.292v6.534h6.545V29.427z"/>
</svg>
