<?xml version="1.0" encoding="utf-8"?>
<!-- Generator: Adobe Illustrator 16.0.0, SVG Export Plug-In . SVG Version: 6.00 Build 0)  -->
<!DOCTYPE svg PUBLIC "-//W3C//DTD SVG 1.1//EN" "http://www.w3.org/Graphics/SVG/1.1/DTD/svg11.dtd">
<svg version="1.1" id="Layer_1" xmlns="http://www.w3.org/2000/svg" xmlns:xlink="http://www.w3.org/1999/xlink" x="0px" y="0px"
	 width="61.16px" height="61.17px" viewBox="-0.353 1.718 61.16 61.17" enable-background="new -0.353 1.718 61.16 61.17"
	 xml:space="preserve">
<circle fill-rule="evenodd" clip-rule="evenodd" fill="#FFFFFF" cx="30.227" cy="27.877" r="10.5"/>
<path fill-rule="evenodd" clip-rule="evenodd" fill="#FFFFFF" d="M48.537,51.697c0,0.541-0.021,1.07-0.051,1.602
	c-0.08,1.26-0.24,2.479-0.5,3.67c-5,3.609-11.131,5.719-17.76,5.719c-6.63,0-12.76-2.109-17.76-5.719c-0.26-1.18-0.42-2.41-0.5-3.66
	c-0.03-0.531-0.05-1.07-0.05-1.611c0-7.719,3.39-10.389,8.5-11.309c2.75,2.02,6.14,3.199,9.81,3.199c3.67,0,7.061-1.18,9.811-3.199
	C45.147,41.308,48.537,43.978,48.537,51.697z"/>
<path fill-rule="evenodd" clip-rule="evenodd" fill="#FFFFFF" d="M30.227,1.718c-16.889,0-30.58,13.69-30.58,30.581
	c0,16.889,13.69,30.59,30.58,30.59c16.891,0,30.58-13.701,30.58-30.59C60.807,15.407,47.117,1.718,30.227,1.718z M30.227,58.048
	c-14.219,0-25.75-11.531-25.75-25.75c0-14.22,11.53-25.75,25.75-25.75c14.221,0,25.75,11.53,25.75,25.75
	C55.977,46.517,44.448,58.048,30.227,58.048z"/>
</svg>
