<?xml version="1.0" encoding="utf-8"?>
<!-- Generator: Adobe Illustrator 16.0.0, SVG Export Plug-In . SVG Version: 6.00 Build 0)  -->
<!DOCTYPE svg PUBLIC "-//W3C//DTD SVG 1.1//EN" "http://www.w3.org/Graphics/SVG/1.1/DTD/svg11.dtd">
<svg version="1.1" id="Layer_1" xmlns="http://www.w3.org/2000/svg" xmlns:xlink="http://www.w3.org/1999/xlink" x="0px" y="0px"
	 width="60.561px" height="60.447px" viewBox="0.846 0.959 60.561 60.447" enable-background="new 0.846 0.959 60.561 60.447"
	 xml:space="preserve">
<path fill="#FFFFFF" d="M48.502,55.911c-0.506-0.254-1-0.432-1.411-0.723c-1.047-0.74-2.145-1.441-3.06-2.322
	c-1.434-1.383-2.794-1.629-4.633-0.662c-1.16,0.609-1.825,1.109-1.863,2.516c-0.045,1.617-0.423,3.225-0.655,4.838
	c-0.178,1.234-0.874,1.84-2.133,1.834c-2.333-0.012-4.667-0.045-6.997,0.014c-1.57,0.039-2.191-0.801-2.378-2.199
	c-0.225-1.672-0.547-3.336-0.676-5.016c-0.073-0.953-0.483-1.301-1.292-1.764c-2.119-1.213-3.834-1.006-5.528,0.746
	c-0.799,0.826-1.835,1.428-2.774,2.117c-0.991,0.727-1.927,0.678-2.811-0.215c-1.685-1.697-3.379-3.385-5.072-5.07
	c-0.902-0.896-0.892-1.814-0.141-2.801c1.095-1.436,2.249-2.84,3.209-4.363c0.354-0.559,0.391-1.445,0.283-2.139
	c-0.375-2.457-1.924-3.402-4.359-3.326c-1.144,0.033-2.294-0.363-3.448-0.51c-1.267-0.16-1.866-0.914-1.885-2.111
	c-0.039-2.391-0.046-4.783,0.002-7.172c0.024-1.198,0.656-1.923,1.924-2.071c1.677-0.196,3.343-0.476,5.014-0.701
	c2.299-0.312,3.75-3.661,2.375-5.496c-1.049-1.397-2.085-2.806-3.151-4.191c-0.775-1.01-0.667-1.921,0.208-2.794
	c1.694-1.688,3.382-3.382,5.076-5.07c0.894-0.89,1.845-0.874,2.82-0.145c1.446,1.082,2.901,2.156,4.32,3.272
	c0.689,0.542,1.258,0.528,2.168,0.339c2.766-0.574,3.093-2.477,3.414-4.787c0.719-5.159-0.106-5.025,5.505-4.963
	c1.342,0.015,2.682,0.035,4.023-0.005c1.43-0.042,2.149,0.638,2.322,2.029c0.213,1.732,0.376,3.481,0.759,5.178
	c0.146,0.643,0.747,1.296,1.313,1.707c1.982,1.439,3.77,1.108,5.451-0.676c0.787-0.835,1.833-1.43,2.774-2.116
	c0.982-0.714,1.919-0.708,2.813,0.198c1.68,1.701,3.375,3.387,5.072,5.07c0.895,0.889,0.935,1.794,0.17,2.793
	c-1.168,1.528-2.352,3.05-3.417,4.646c-0.281,0.423-0.305,1.145-0.195,1.677c0.492,2.374,1.837,3.673,4.439,3.558
	c1.141-0.053,2.297,0.34,3.452,0.48c1.254,0.152,1.872,0.838,1.875,2.082c0.006,2.391,0,4.782,0.003,7.172
	c0.002,1.256-0.612,1.938-1.859,2.098c-1.501,0.191-2.992,0.482-4.496,0.609c-1.515,0.129-2.382,0.697-3.008,2.246
	c-0.653,1.615-0.657,2.729,0.545,4.006c1.031,1.096,1.972,2.332,2.692,3.646c0.338,0.619,0.406,1.869,0.012,2.322
	c-1.717,1.977-3.635,3.779-5.519,5.605C49.468,55.599,48.967,55.697,48.502,55.911z M31.23,27.348
	c-2.193-0.03-3.956,1.649-3.993,3.805c-0.035,2.098,1.771,3.934,3.893,3.953c2.069,0.018,3.858-1.717,3.908-3.791
	C35.088,29.14,33.399,27.38,31.23,27.348z"/>
</svg>
