<?xml version="1.0" encoding="utf-8"?>
<!-- Generator: Adobe Illustrator 16.0.0, SVG Export Plug-In . SVG Version: 6.00 Build 0)  -->
<!DOCTYPE svg PUBLIC "-//W3C//DTD SVG 1.1//EN" "http://www.w3.org/Graphics/SVG/1.1/DTD/svg11.dtd">
<svg version="1.1" id="Layer_1" xmlns="http://www.w3.org/2000/svg" xmlns:xlink="http://www.w3.org/1999/xlink" x="0px" y="0px"
	 width="72px" height="72px" viewBox="0 0 72 72" enable-background="new 0 0 72 72" xml:space="preserve">
<circle fill-rule="evenodd" clip-rule="evenodd" fill="#C32C2B" cx="36" cy="36" r="36"/>
<g>
	<path fill-rule="evenodd" clip-rule="evenodd" fill="#FFFFFF" d="M17.333,25.553c6.155,0.001,12.31,0,18.464,0
		c4.276,0,8.553,0,12.829,0c1.994,0,3.988,0.011,5.981-0.004c1.315-0.01,1.971-0.648,2.014-1.954
		c0.027-0.837,0.009-1.676,0.008-2.514c-0.002-1.932-0.53-2.457-2.47-2.457c-11.414,0-22.828,0-34.242,0
		c-0.896,0-1.791-0.003-2.687,0.001c-1.572,0.007-2.18,0.619-2.194,2.211c-0.008,0.809-0.005,1.618,0,2.427
		C15.048,24.957,15.644,25.552,17.333,25.553z"/>
	<path fill-rule="evenodd" clip-rule="evenodd" fill="#FFFFFF" d="M17.446,39.433c6.097,0,12.193,0,18.291,0c1.82,0,3.641,0,5.46,0
		c4.421,0,8.842,0.003,13.263-0.001c1.518-0.002,2.144-0.628,2.167-2.154c0.013-0.78,0.006-1.561,0.003-2.34
		c-0.005-1.887-0.545-2.432-2.409-2.432c-12.253,0-24.504,0-36.755,0c-0.203,0-0.405-0.008-0.607,0.003
		c-1.108,0.063-1.762,0.69-1.809,1.802c-0.037,0.895-0.015,1.791-0.014,2.687C15.04,38.875,15.592,39.433,17.446,39.433z"/>
	<path fill-rule="evenodd" clip-rule="evenodd" fill="#FFFFFF" d="M56.629,48.721c-0.007-1.755-0.585-2.334-2.332-2.334
		c-7.021,0-14.043,0-21.065,0c-5.316,0-10.633-0.001-15.949,0.001c-1.631,0.001-2.235,0.608-2.247,2.247
		c-0.005,0.78-0.004,1.56,0,2.34c0.009,1.752,0.592,2.339,2.333,2.339c6.155,0.002,12.31,0,18.464,0c2.283,0,4.565,0,6.848,0
		c3.958,0,7.917,0.006,11.875-0.003c1.375-0.002,2.029-0.635,2.069-1.988C56.65,50.456,56.633,49.588,56.629,48.721z"/>
</g>
</svg>
