<?xml version="1.0" encoding="utf-8"?>
<!-- Generator: Adobe Illustrator 16.0.0, SVG Export Plug-In . SVG Version: 6.00 Build 0)  -->
<!DOCTYPE svg PUBLIC "-//W3C//DTD SVG 1.1//EN" "http://www.w3.org/Graphics/SVG/1.1/DTD/svg11.dtd">
<svg version="1.1" id="Layer_1" xmlns="http://www.w3.org/2000/svg" xmlns:xlink="http://www.w3.org/1999/xlink" x="0px" y="0px"
	 width="72px" height="72px" viewBox="0 0 72 72" enable-background="new 0 0 72 72" xml:space="preserve">
<circle fill="#C32C2B" cx="36" cy="36" r="36"/>
<g>
	<path fill-rule="evenodd" clip-rule="evenodd" fill="#FFFFFF" d="M17.228,34.339c1.109-0.028,2.229-0.872,2.151-1.958
		c-0.08-1.111,0.56-1.587,1.2-2.178c0.656-0.605,1.3-1.221,1.953-1.826c0.576-0.533,1.159-1.059,1.78-1.627
		c2.733,4.437,5.404,8.75,8.046,13.08c0.525,0.86,1.212,1.38,2.225,1.381c6.922,0.007,13.846,0.016,20.768-0.006
		c1.489-0.005,2.453-0.991,2.474-2.471c0.032-2.199,0.033-4.397,0-6.596c-0.023-1.525-1.012-2.44-2.563-2.458
		c-0.761-0.009-1.522-0.002-2.4-0.002c0-0.811,0-1.505,0-2.214c-0.611,0-1.101,0-1.697,0c0,0.742,0,1.437,0,2.167
		c-0.925,0-1.742,0-2.688,0c0-3.26,0-6.475,0-9.737c-3.097,0-6.067-0.012-9.036,0.021c-0.267,0.003-0.586,0.246-0.786,0.464
		c-1.685,1.84-3.296,3.75-5.038,5.535c-0.915,0.937-1.474,1.887-1.259,3.214c0.027,0.174-0.054,0.366-0.107,0.685
		c-1.665-1.85-3.242-3.58-4.781-5.344c-0.171-0.198-0.183-0.589-0.17-0.886c0.066-1.6-1.021-2.958-2.548-3.139
		c-1.568-0.186-3.037,0.804-3.186,2.408c-0.094,1.01-0.569,1.697-1.118,2.424c-0.947,1.257-1.855,2.543-2.837,3.772
		c-0.289,0.362-0.735,0.66-1.169,0.831c-1.04,0.409-1.726,1.469-1.528,2.527C15.132,33.577,16.079,34.369,17.228,34.339z
		 M34.316,28.481c0.003-0.229,0.209-0.483,0.378-0.674c1.58-1.777,3.166-3.549,4.771-5.303c0.199-0.217,0.525-0.441,0.796-0.446
		c2.048-0.037,4.097-0.02,6.29-0.02c0,2.545-0.072,4.979,0.029,7.405c0.054,1.293-0.37,2.169-1.254,3.105
		c-1.052,1.112-2.121,1.567-3.643,1.473c-2.132-0.132-4.279-0.033-6.418-0.033c-0.29,0-0.58,0-0.967,0
		C34.298,32.09,34.284,30.285,34.316,28.481z M24.372,21.901c0.743-0.008,1.424,0.665,1.433,1.413
		c0.007,0.767-0.627,1.405-1.407,1.414c-0.796,0.008-1.403-0.591-1.407-1.387C22.986,22.556,23.606,21.91,24.372,21.901z
		 M17.09,31.35c0.309,0.042,0.758,0.396,0.8,0.671c0.042,0.274-0.344,0.613-0.706,1.176c-0.371-0.536-0.734-0.833-0.735-1.132
		C16.45,31.81,16.897,31.325,17.09,31.35z"/>
	<path fill-rule="evenodd" clip-rule="evenodd" fill="#FFFFFF" d="M53.403,42.045c-6.058-0.018-12.116-0.007-18.174-0.004
		c-1.562,0.001-2.928,0.514-3.954,1.714c-1.352,1.583-1.693,3.395-0.846,5.309c0.893,2.015,2.53,3.012,4.727,3.029
		c3.058,0.022,6.117,0.005,9.176,0.005c3.059-0.001,6.118,0.037,9.176-0.011c2.959-0.046,5.125-2.246,5.086-5.063
		C58.555,44.2,56.345,42.053,53.403,42.045z M53.34,50.588c-3.001,0.006-6.002,0.001-9.003,0.001c-3.031,0-6.061,0.004-9.092-0.001
		c-2.193-0.004-3.768-1.502-3.745-3.544c0.023-2.022,1.546-3.466,3.722-3.47c6.061-0.011,12.123-0.012,18.186,0
		c2.157,0.005,3.688,1.478,3.693,3.493C57.104,49.114,55.542,50.584,53.34,50.588z"/>
	<path fill-rule="evenodd" clip-rule="evenodd" fill="#FFFFFF" d="M18.981,35.376c-0.171-0.199-0.486-0.371-0.741-0.382
		c-1.004-0.043-2.01-0.018-3.089-0.018c-0.512,1.957-1.046,3.956-1.556,5.961c-0.741,2.923,0.705,4.788,3.714,4.795
		c3.175,0.006,6.35,0.001,9.524,0.001c0.253,0,0.506,0,0.82,0c-0.067-0.188-0.077-0.279-0.125-0.336
		C24.686,42.053,21.842,38.707,18.981,35.376z"/>
	<path fill-rule="evenodd" clip-rule="evenodd" fill="#FFFFFF" d="M41.258,44.456c-1.487-0.021-2.686,1.131-2.701,2.596
		c-0.015,1.468,1.166,2.648,2.65,2.649c1.486,0,2.674-1.177,2.663-2.641C43.858,45.633,42.697,44.476,41.258,44.456z"/>
	<path fill-rule="evenodd" clip-rule="evenodd" fill="#FFFFFF" d="M34.958,44.456c-1.441,0.028-2.583,1.186-2.584,2.62
		c-0.001,1.466,1.186,2.632,2.671,2.624c1.491-0.008,2.626-1.167,2.61-2.664C37.638,45.559,36.456,44.427,34.958,44.456z"/>
	<path fill-rule="evenodd" clip-rule="evenodd" fill="#FFFFFF" d="M47.378,44.456c-1.497,0.009-2.625,1.162-2.608,2.664
		c0.017,1.484,1.185,2.604,2.69,2.58c1.435-0.023,2.574-1.181,2.577-2.62C50.039,45.599,48.871,44.446,47.378,44.456z"/>
	<path fill-rule="evenodd" clip-rule="evenodd" fill="#FFFFFF" d="M53.568,44.456c-1.458,0.006-2.589,1.119-2.615,2.571
		c-0.026,1.487,1.119,2.664,2.603,2.674c1.501,0.01,2.652-1.124,2.654-2.616C56.214,45.589,55.069,44.45,53.568,44.456z"/>
</g>
</svg>
