<?xml version="1.0" encoding="utf-8"?>
<!-- Generator: Adobe Illustrator 16.0.0, SVG Export Plug-In . SVG Version: 6.00 Build 0)  -->
<!DOCTYPE svg PUBLIC "-//W3C//DTD SVG 1.1//EN" "http://www.w3.org/Graphics/SVG/1.1/DTD/svg11.dtd">
<svg version="1.1" id="Layer_1" xmlns="http://www.w3.org/2000/svg" xmlns:xlink="http://www.w3.org/1999/xlink" x="0px" y="0px"
	 width="72px" height="72px" viewBox="0 0 72 72" enable-background="new 0 0 72 72" xml:space="preserve">
<circle fill="#C32C2B" cx="36" cy="36.016" r="36"/>
<g>
	<path fill-rule="evenodd" clip-rule="evenodd" fill="#FFFFFF" d="M30.968,38.085c-0.164,1.191-0.197,2.386,0.006,3.571
		c0.283,1.65,1.122,2.915,2.657,3.679c1.764,0.877,3.678,1.078,5.587,1.112c3.031,0.055,6.067-0.034,9.1-0.071
		c1.42-0.018,2.806-0.26,4.136-0.755c1.249-0.463,2.268-1.221,2.835-2.468c0.83-1.821,0.809-3.693,0.139-5.535
		c-0.813-2.236-2.354-3.943-4.23-5.35c-1.862-1.396-3.931-2.384-6.168-3.041c-1.528-0.448-3.087-0.637-4.667-0.708
		c-0.25-0.012-0.502,0.047-0.755,0.074c0-1.106,0-2.171,0-3.301c1.102,0.078,2.163,0.166,3.225,0.226
		c1.837,0.105,3.675,0.195,5.512,0.286c0.806,0.039,1.61,0.06,2.415,0.097c0.603,0.027,1.205,0.059,1.807,0.1
		c1.245,0.085,2.488,0.219,3.733,0.255c0.877,0.026,1.757-0.887,1.683-1.69c-0.08-0.888-0.767-1.603-1.768-1.564
		c-0.988,0.039-1.973,0.123-2.958,0.181c-1.126,0.066-2.252,0.125-3.379,0.188c-1.126,0.062-2.253,0.132-3.379,0.186
		c-1.453,0.069-2.908,0.125-4.361,0.191c-0.107,0.004-0.212,0.035-0.319,0.042c-0.734,0.044-1.471,0.085-2.2,0.128
		c-0.273-1.253-0.923-1.935-1.794-1.849c-0.812,0.082-1.455,0.684-1.558,1.864c-0.859-0.063-1.686-0.132-2.515-0.185
		c-1.095-0.07-2.189-0.127-3.285-0.188c-1.697-0.095-3.394-0.195-5.092-0.28c-0.912-0.046-1.828-0.051-2.741-0.101
		c-0.707-0.039-1.411-0.155-2.117-0.168c-0.607-0.013-1.228-0.14-1.812,0.217c-0.617,0.375-0.938,1.126-0.753,1.803
		c0.223,0.81,1.185,1.272,1.76,1.233c0.784-0.051,1.566-0.123,2.349-0.178c0.97-0.067,1.941-0.132,2.911-0.185
		c1.837-0.1,3.674-0.192,5.513-0.282c0.836-0.041,1.673-0.061,2.508-0.1c0.586-0.028,1.171-0.075,1.757-0.112
		c0.503-0.032,1.006-0.064,1.547-0.098c0,1.327,0.006,2.57-0.01,3.814c-0.002,0.116-0.121,0.278-0.23,0.338
		c-1.118,0.616-2.096,1.389-2.894,2.396c-0.113,0.142-0.405,0.2-0.615,0.2c-5.719,0.011-11.438,0.008-17.157,0.008
		c-0.685,0-1.115,0.271-1.163,0.73c-0.046,0.437,0.249,0.694,0.949,0.864c2.916,0.71,5.832,1.425,8.748,2.138
		c2.146,0.526,4.285,1.082,6.443,1.559C30.857,37.467,31.033,37.608,30.968,38.085z M42.195,33.398c0.42-1.233,0.99-1.49,2.28-1.309
		c2.08,0.294,3.914,1.135,5.552,2.412c1.221,0.953,2.18,2.107,2.547,3.671c0.31,1.318-0.207,2.28-1.538,2.526
		c-1.47,0.271-2.964,0.409-4.185,0.569c-1.053-0.114-1.841-0.119-2.586-0.3c-1.386-0.335-2.381-0.988-2.551-2.89
		C41.572,36.504,41.678,34.914,42.195,33.398z"/>
	<path fill-rule="evenodd" clip-rule="evenodd" fill="#FFFFFF" d="M56.79,46.998c-0.526-0.194-1.257,0.022-1.703,0.589
		c-0.152,0.193-0.364,0.371-0.587,0.472c-1.139,0.517-2.379,0.629-3.593,0.635c-7.216,0.04-14.433,0.02-21.648,0.027
		c-0.306,0-0.626,0.012-0.912,0.105c-0.488,0.157-0.935,0.448-1.106,0.95c-0.407,1.196,0.357,2.212,1.625,2.212
		c3.662,0,7.325,0,10.988,0c0-0.031,0-0.062,0-0.093c3.984,0,7.968,0.026,11.952-0.014c1.426-0.013,2.84-0.293,4.14-0.9
		c0.968-0.452,1.848-1.058,1.963-2.291C57.973,47.992,57.528,47.271,56.79,46.998z"/>
	<path fill-rule="evenodd" clip-rule="evenodd" fill="#FFFFFF" d="M15.853,35.093c-0.331,0.041-0.658,0.14-0.989,0.151
		c-1.761,0.056-2.674-1.514-2.234-3.107c0.43-1.554,2.415-2.163,3.703-1.197c0.125,0.094,0.291,0.181,0.441,0.187
		c0.591,0.021,1.183,0.009,1.816,0.009c-0.765-1.654-2.487-2.625-4.316-2.313c-1.918,0.327-3.332,1.754-3.483,3.828
		c-0.131,1.766,0.809,3.296,2.548,4.051c1.774,0.769,3.645,0.157,4.591-1.149c-0.526-0.154-1.047-0.317-1.575-0.454
		C16.197,35.057,16.019,35.072,15.853,35.093z"/>
</g>
</svg>
