<?xml version="1.0" encoding="utf-8"?>
<!-- Generator: Adobe Illustrator 16.0.0, SVG Export Plug-In . SVG Version: 6.00 Build 0)  -->
<!DOCTYPE svg PUBLIC "-//W3C//DTD SVG 1.1//EN" "http://www.w3.org/Graphics/SVG/1.1/DTD/svg11.dtd">
<svg version="1.1" id="Layer_1" xmlns="http://www.w3.org/2000/svg" xmlns:xlink="http://www.w3.org/1999/xlink" x="0px" y="0px"
	 width="72px" height="72px" viewBox="0 0 72 72" enable-background="new 0 0 72 72" xml:space="preserve">
<circle fill="#82AF40" cx="36" cy="36" r="36"/>
<g>
	<path fill-rule="evenodd" clip-rule="evenodd" fill="#FFFFFF" d="M53.009,19.804c-0.37-0.951-0.84-1.869-1.322-2.77
		c-0.872-1.631-2.228-2.382-4.112-2.374c-7.58,0.036-15.162,0.076-22.742-0.019c-2.571-0.032-4.174,1.062-5.08,3.337
		c-1.199,3.012-2.346,6.044-3.513,9.062c13.232,0,26.342,0,39.473,0C54.824,24.651,53.946,22.216,53.009,19.804z"/>
	<path fill-rule="evenodd" clip-rule="evenodd" fill="#FFFFFF" d="M18.472,36.126c7.297,0.001,14.593,0,21.891,0
		c4.333,0,8.665,0,12.998,0c2.183,0,2.557-0.368,2.557-2.515c0-0.998,0.002-1.995-0.001-2.993c-0.004-1.589-0.51-2.099-2.091-2.1
		c-5.929-0.002-11.857,0-17.786,0c-5.986,0-11.972-0.002-17.958,0.001c-1.466,0-1.989,0.536-1.996,2.019
		c-0.006,1.055-0.001,2.109-0.001,3.164C16.085,35.714,16.488,36.126,18.472,36.126z M50.517,30.001
		c1.302-0.021,2.35,0.995,2.359,2.287c0.009,1.278-1.046,2.354-2.312,2.356c-1.262,0.002-2.329-1.078-2.321-2.351
		C48.252,31.04,49.262,30.021,50.517,30.001z"/>
	<path fill-rule="evenodd" clip-rule="evenodd" fill="#FFFFFF" d="M53.736,46.907c-4.017-0.004-8.036-0.001-12.055-0.001
		c-7.836,0-15.674-0.002-23.511,0.001c-1.593,0.001-2.082,0.505-2.085,2.104c-0.003,1.111-0.002,2.223,0,3.334
		c0.002,1.648,0.5,2.155,2.134,2.155c5.899,0.002,11.798,0.001,17.697,0.001c5.956,0,11.913,0.001,17.869-0.001
		c1.623,0,2.128-0.515,2.131-2.161c0.003-1.083,0.002-2.166,0.001-3.249C55.915,47.387,55.443,46.909,53.736,46.907z M50.637,52.998
		c-1.302,0.033-2.366-0.968-2.393-2.251c-0.026-1.275,1.013-2.355,2.287-2.375c1.273-0.02,2.34,1.031,2.346,2.313
		C52.884,51.941,51.891,52.966,50.637,52.998z"/>
	<path fill-rule="evenodd" clip-rule="evenodd" fill="#FFFFFF" d="M53.731,37.724c-5.899-0.001-11.798,0-17.697,0
		c-5.984,0-11.968-0.002-17.953,0.001c-1.483,0.001-1.988,0.518-1.995,2.013c-0.006,1.197-0.008,2.394,0,3.59
		c0.008,1.42,0.544,1.959,1.969,1.964c2.308,0.007,4.615,0.002,6.924,0.002c9.603,0,19.207,0,28.811,0
		c1.637,0,2.125-0.497,2.127-2.153c0.001-1.083,0.001-2.166,0-3.249C55.915,38.19,55.447,37.725,53.731,37.724z M50.511,43.799
		c-1.298-0.021-2.303-1.07-2.267-2.367c0.034-1.239,1.084-2.254,2.325-2.249c1.279,0.006,2.32,1.065,2.307,2.35
		C52.863,42.828,51.828,43.82,50.511,43.799z"/>
</g>
</svg>
