<?xml version="1.0" encoding="utf-8"?>
<!-- Generator: Adobe Illustrator 16.0.0, SVG Export Plug-In . SVG Version: 6.00 Build 0)  -->
<!DOCTYPE svg PUBLIC "-//W3C//DTD SVG 1.1//EN" "http://www.w3.org/Graphics/SVG/1.1/DTD/svg11.dtd">
<svg version="1.1" id="Layer_1" xmlns="http://www.w3.org/2000/svg" xmlns:xlink="http://www.w3.org/1999/xlink" x="0px" y="0px"
	 width="72px" height="72px" viewBox="0 0 72 72" enable-background="new 0 0 72 72" xml:space="preserve">
<circle fill-rule="evenodd" clip-rule="evenodd" fill="#82AF40" cx="36" cy="36" r="36"/>
<g>
	<path fill-rule="evenodd" clip-rule="evenodd" fill="#FFFFFF" d="M43.217,39.995c0.85-1.926,2.121-3.568,3.548-5.095
		c1.975-2.111,3.099-4.568,3.081-7.499c-0.011-3.328-1.255-6.129-3.7-8.375c-5.175-4.751-13.325-5.176-19.125-0.937
		c-3.935,2.875-5.513,6.78-4.63,11.602c0.387,2.112,1.556,3.817,2.98,5.383c1.779,1.955,3.391,4.029,3.964,6.695
		c0.062,0.287-0.078,0.725-0.283,0.942c-0.899,0.954-1.077,2.053-0.498,3.255c0.108,0.225,0.106,0.593-0.003,0.818
		c-0.555,1.147-0.409,2.227,0.444,3.194c0.158,0.178,0.288,0.5,0.244,0.718c-0.399,1.967,0.291,3.031,2.23,3.463
		c0.309,0.069,0.658,0.311,0.832,0.575c1.709,2.596,5.39,2.743,7.189,0.218c0.365-0.511,0.721-0.778,1.328-0.908
		c1.667-0.359,2.36-1.579,1.983-3.239c-0.059-0.26,0.057-0.652,0.236-0.857c0.794-0.91,0.947-2.033,0.425-3.133
		c-0.116-0.247-0.113-0.644,0.004-0.891c0.536-1.129,0.344-2.279-0.5-3.191c-0.22-0.238-0.35-0.695-0.299-1.017
		C42.761,41.127,42.975,40.545,43.217,39.995z M40.027,38.572c-0.371,0.928-0.543,1.935-0.857,2.889
		c-0.076,0.23-0.356,0.555-0.547,0.56c-1.875,0.042-3.753,0.025-5.597,0.025c-0.309-1.078-0.533-2.124-0.906-3.111
		c-0.872-2.304-2.303-4.254-4.013-6.006c-1.712-1.753-2.688-3.779-2.469-6.3c0.21-2.407,1.354-4.29,3.262-5.665
		c4.346-3.133,9.896-3.096,14.232,0.008c3.835,2.746,4.375,8.018,1.127,11.529C42.562,34.334,40.964,36.229,40.027,38.572z"/>
	<path fill-rule="evenodd" clip-rule="evenodd" fill="#FFFFFF" d="M41.207,25.113c-1.182-1.565-2.966-1.98-4.982-2.149
		c-0.452-0.043-0.984,0.083-1.035,0.799c-0.05,0.722,0.463,0.908,1.078,0.935c0.258,0.011,0.52,0.04,0.771,0.099
		c1.567,0.369,3.132,0.722,3.407,2.745c0.031,0.23,0.586,0.597,0.814,0.543c0.297-0.069,0.757-0.543,0.716-0.76
		C41.83,26.561,41.658,25.711,41.207,25.113z"/>
</g>
</svg>
