<?xml version="1.0" encoding="utf-8"?>
<!-- Generator: Adobe Illustrator 16.0.0, SVG Export Plug-In . SVG Version: 6.00 Build 0)  -->
<!DOCTYPE svg PUBLIC "-//W3C//DTD SVG 1.1//EN" "http://www.w3.org/Graphics/SVG/1.1/DTD/svg11.dtd">
<svg version="1.1" id="Layer_1" xmlns="http://www.w3.org/2000/svg" xmlns:xlink="http://www.w3.org/1999/xlink" x="0px" y="0px"
	 width="72px" height="72px" viewBox="0 0 72 72" enable-background="new 0 0 72 72" xml:space="preserve">
<circle fill="#C32C2B" cx="36" cy="36" r="36"/>
<path fill-rule="evenodd" clip-rule="evenodd" fill="#FFFFFF" d="M20.143,35.993c0.001-6.061,0-12.121,0.001-18.18
	c0.001-1.542,0.462-2.008,1.986-2.01c9.259,0,18.517,0,27.775,0c1.463,0.001,1.952,0.495,1.953,1.974
	c0.001,12.12,0.001,24.239,0,36.358c0,1.581-0.474,2.061-2.034,2.061c-9.207,0.001-18.413,0.001-27.619,0.001
	c-1.587,0-2.06-0.464-2.061-2.025C20.142,48.112,20.143,42.052,20.143,35.993z M35.986,53.294c1.118,0,2.235-0.016,3.352,0.007
	c0.69,0.014,1.005-0.272,0.996-0.969c-0.017-1.273-0.018-2.547,0-3.82c0.008-0.681-0.28-1.013-0.972-1.011
	c-2.235,0.007-4.47,0.01-6.705-0.002c-0.687-0.003-1.002,0.304-0.997,0.989c0.008,1.271,0.014,2.545-0.003,3.818
	c-0.009,0.738,0.335,1.018,1.056,0.997C33.802,53.273,34.895,53.294,35.986,53.294z M27.362,21.565
	c-1.398,0-1.471,0.064-1.473,1.343c-0.002,1.468,0.074,1.557,1.35,1.559c1.482,0.003,1.545-0.056,1.545-1.438
	C28.785,21.604,28.749,21.565,27.362,21.565z M34.556,23.06c0.002-1.438-0.046-1.492-1.314-1.494
	c-1.499-0.001-1.579,0.064-1.582,1.312c-0.004,1.519,0.056,1.586,1.398,1.59C34.473,24.468,34.555,24.392,34.556,23.06z
	 M38.923,21.565c-1.42,0-1.492,0.066-1.492,1.405c0,1.414,0.078,1.496,1.414,1.496c1.426,0,1.484-0.059,1.484-1.498
	C40.33,21.626,40.269,21.565,38.923,21.565z M46.102,23c0-1.393-0.044-1.435-1.453-1.435c-1.373,0-1.448,0.075-1.447,1.451
	c0.001,1.376,0.079,1.449,1.537,1.449C46.019,24.463,46.103,24.375,46.102,23z M28.784,28.805c0.001-1.411-0.05-1.466-1.337-1.468
	c-1.504-0.001-1.558,0.049-1.558,1.411c0,1.407,0.069,1.479,1.421,1.48C28.721,30.229,28.784,30.168,28.784,28.805z M34.557,28.806
	c0.002-1.393-0.061-1.466-1.259-1.47c-1.563-0.003-1.635,0.056-1.638,1.331c-0.003,1.475,0.07,1.56,1.342,1.562
	C34.502,30.229,34.555,30.18,34.557,28.806z M40.329,28.789c0.001-1.394-0.053-1.451-1.354-1.453c-1.485,0-1.545,0.054-1.545,1.426
	c0,1.383,0.081,1.464,1.44,1.464C40.26,30.229,40.329,30.161,40.329,28.789z M44.635,27.336c-1.342,0-1.431,0.087-1.433,1.385
	c-0.002,1.438,0.062,1.504,1.475,1.506c1.358,0,1.424-0.067,1.424-1.473C46.103,27.38,46.058,27.336,44.635,27.336z M33.13,33.109
	c-1.411,0-1.47,0.057-1.47,1.419c0,1.4,0.059,1.459,1.434,1.461c1.404,0.001,1.462-0.054,1.462-1.426
	C34.557,33.144,34.525,33.111,33.13,33.109z M38.854,33.109c-1.338,0.001-1.424,0.085-1.424,1.39c0,1.421,0.065,1.491,1.406,1.491
	c1.438,0.001,1.493-0.052,1.493-1.397C40.328,33.122,40.317,33.109,38.854,33.109z M46.102,34.583
	c0.002-1.397-0.059-1.47-1.251-1.473c-1.588-0.003-1.647,0.047-1.648,1.398c0,1.409,0.068,1.482,1.415,1.483
	C46.041,35.991,46.1,35.936,46.102,34.583z M44.654,38.882c-1.389,0.002-1.452,0.063-1.452,1.437c0,1.379,0.062,1.438,1.534,1.438
	c1.291,0,1.365-0.073,1.365-1.366C46.104,38.894,46.091,38.882,44.654,38.882z M27.354,33.109c-1.417,0-1.464,0.047-1.465,1.421
	c0,1.409,0.051,1.459,1.512,1.459c1.317,0,1.383-0.066,1.383-1.428C28.785,33.147,28.75,33.111,27.354,33.109z M27.345,41.757
	c1.392,0,1.439-0.047,1.439-1.447c0-1.376-0.048-1.426-1.373-1.428c-1.48,0-1.522,0.04-1.522,1.44
	C25.889,41.7,25.947,41.757,27.345,41.757z M34.557,40.334c0.001-1.383-0.057-1.449-1.27-1.453
	c-1.557-0.001-1.624,0.054-1.627,1.338c-0.004,1.485,0.046,1.538,1.431,1.539C34.502,41.759,34.555,41.708,34.557,40.334z
	 M38.907,38.882c-1.41,0-1.478,0.064-1.478,1.411c0,1.406,0.062,1.465,1.51,1.465c1.33,0,1.39-0.061,1.39-1.419
	C40.33,38.913,40.299,38.882,38.907,38.882z M28.784,46.13c0.001-1.421-0.046-1.473-1.324-1.475c-1.52-0.002-1.57,0.042-1.571,1.39
	c-0.001,1.428,0.048,1.48,1.406,1.48C28.738,47.526,28.784,47.483,28.784,46.13z M44.646,47.524
	c1.391,0.002,1.453-0.055,1.456-1.351c0.004-1.463-0.042-1.517-1.279-1.519c-1.547-0.003-1.617,0.056-1.621,1.345
	C43.198,47.464,43.254,47.523,44.646,47.524z"/>
</svg>
