<?xml version="1.0" encoding="utf-8"?>
<!-- Generator: Adobe Illustrator 16.0.0, SVG Export Plug-In . SVG Version: 6.00 Build 0)  -->
<!DOCTYPE svg PUBLIC "-//W3C//DTD SVG 1.1//EN" "http://www.w3.org/Graphics/SVG/1.1/DTD/svg11.dtd">
<svg version="1.1" id="Layer_1" xmlns="http://www.w3.org/2000/svg" xmlns:xlink="http://www.w3.org/1999/xlink" x="0px" y="0px"
	 width="72px" height="72px" viewBox="0 0 72 72" enable-background="new 0 0 72 72" xml:space="preserve">
<circle fill="#82AF40" cx="36" cy="36" r="36"/>
<path fill-rule="evenodd" clip-rule="evenodd" fill="#FFFFFF" d="M35.643,28.617c5.121,3.59,10.13,7.102,15.274,10.708
	c-1.157,0.676-0.946,1.75-0.948,2.761c-0.003,2.917-0.002,5.834-0.002,8.752c0,0.315,0,0.631,0,1.042c1.911,0,3.725,0,5.601,0
	c0,1.166,0,2.239,0,3.382c-13.031,0-26.06,0-39.137,0c0-1.119,0-2.192,0-3.369c1.616,0,3.191,0,4.883,0c0-0.473,0-0.846,0-1.218
	c0.004-4.094-0.174-8.198,0.053-12.279c0.387-6.95,2.513-13.297,7.665-18.249c1.394-1.34,3.193-2.268,4.852-3.313
	c0.273-0.172,0.839-0.082,1.171,0.083c0.813,0.404,1.531,1.015,2.359,1.374c0.956,0.414,1.05,1.021,0.874,1.933
	c-0.399,2.075-0.695,4.171-1.068,6.252c-0.058,0.324-0.255,0.648-0.462,0.916C36.439,27.806,36.056,28.171,35.643,28.617z
	 M47.658,51.852c0-2.729,0.007-5.349-0.004-7.968c-0.003-0.847,0.238-1.89-0.164-2.485c-0.403-0.597-1.46-0.767-2.245-1.088
	c-1.806-0.741-3.619-1.461-5.602-2.259c1.021,3.685,1.995,7.195,2.979,10.743c0.582,0,1.073,0,1.67,0c0,1.047,0,2.032,0,3.058
	C45.445,51.852,46.49,51.852,47.658,51.852z M25.792,51.863c0-1.077,0-2.061,0-3.061c0.628-0.032,1.148-0.06,1.65-0.085
	c1.304-4.722,2.589-9.378,3.875-14.034c-0.063-0.093-0.125-0.186-0.188-0.28c-0.377,0.095-0.883,0.066-1.112,0.304
	c-2.043,2.122-4.045,4.283-6.033,6.457c-0.209,0.229-0.341,0.619-0.344,0.936c-0.024,3.004-0.015,6.009-0.011,9.015
	c0.001,0.25,0.04,0.5,0.059,0.749C24.391,51.863,25.003,51.863,25.792,51.863z M30.253,51.834c3.186,0,6.345,0,9.628,0
	c-0.232-0.699-0.26-1.483-0.667-1.875c-1.323-1.276-2.784-2.409-4.195-3.599c-1.181,0.98-2.229,1.934-3.366,2.767
	C30.71,49.819,30.377,50.74,30.253,51.834z M35.055,44.034c0.527-0.439,0.999-0.884,1.523-1.254c0.512-0.361,0.6-0.76,0.421-1.345
	c-0.428-1.398-0.822-2.809-1.178-4.227c-0.166-0.663-0.451-1.107-1.179-1.135c-0.047,0.054-0.106,0.092-0.12,0.143
	c-0.343,1.211-0.535,2.49-1.053,3.62c-0.83,1.815-0.437,3.084,1.278,4.013C34.824,43.889,34.896,43.937,35.055,44.034z
	 M32.324,44.117c-0.261,0.949-0.494,1.791-0.795,2.881c0.821-0.696,1.433-1.214,2.109-1.789
	C33.19,44.838,32.817,44.527,32.324,44.117z M38.534,47.022c-0.322-1.119-0.565-1.96-0.837-2.902c-0.48,0.41-0.85,0.726-1.288,1.101
	C37.105,45.811,37.724,46.335,38.534,47.022z"/>
</svg>
