<?xml version="1.0" encoding="utf-8"?>
<!-- Generator: Adobe Illustrator 16.0.0, SVG Export Plug-In . SVG Version: 6.00 Build 0)  -->
<!DOCTYPE svg PUBLIC "-//W3C//DTD SVG 1.1//EN" "http://www.w3.org/Graphics/SVG/1.1/DTD/svg11.dtd">
<svg version="1.1" id="Layer_1" xmlns="http://www.w3.org/2000/svg" xmlns:xlink="http://www.w3.org/1999/xlink" x="0px" y="0px"
	 width="72px" height="72px" viewBox="0 0 72 72" enable-background="new 0 0 72 72" xml:space="preserve">
<circle fill="#C32C2B" cx="36" cy="36" r="36"/>
<path fill-rule="evenodd" clip-rule="evenodd" fill="#FFFFFF" d="M36.35,12.694C23.143,12.54,12.732,22.875,12.699,35.95
	c-0.035,12.908,10.346,23.324,23.276,23.357c12.893,0.035,23.266-10.345,23.325-23.324C59.359,23.389,49.316,12.847,36.35,12.694z
	 M36.717,45.916c-0.082-0.086-0.188-0.153-0.293-0.21c-0.052-0.029-0.135,0.004-0.189-0.022c-1.009-0.464-2-1.271-3.024-1.314
	c-1.268-0.053-2.066-0.831-3.087-1.24c-0.287-0.116-0.658-0.493-0.666-0.76c-0.044-1.489-1.335-2.214-1.949-3.344
	c-0.408-0.747-0.914-1.442-1.396-2.145c-0.08-0.116-0.272-0.155-0.597-0.132c0.526,1.113,1.053,2.227,1.579,3.34
	c-0.111,0.052-0.221,0.104-0.331,0.155c-0.726-1.361-1.441-2.726-2.186-4.077c-0.135-0.246-0.348-0.473-0.575-0.639
	c-1.659-1.207-2.551-2.766-2.324-4.874c0.067-0.621,0.077-1.249,0.116-1.916c0.16,0.048,0.372,0.113,0.582,0.176
	c0.07-0.08,0.141-0.16,0.211-0.24c-1.014-0.977-2.027-1.954-3.083-2.973c2.054-3.066,4.494-5.531,7.828-7.005
	c0.348,0.263,0.694,0.524,0.86,0.65c0.605-0.314,1.068-0.556,1.532-0.797c0.021-0.068,0.04-0.136,0.058-0.204
	c-0.393-0.028-0.788-0.056-1.183-0.084c0.406-0.201,0.799-0.44,1.227-0.559c0.066-0.018,0.241,0.568,0.45,0.801
	c0.202,0.226,0.495,0.458,0.779,0.504c0.403,0.067,0.838-0.092,1.247-0.044c0.343,0.04,0.667,0.237,1,0.365
	c0.174-0.192,0.462-0.508,0.841-0.924c-0.252-0.137-0.582-0.28-0.863-0.488c-0.147-0.109-0.277-0.331-0.287-0.507
	c-0.003-0.093,0.325-0.316,0.416-0.277c0.453,0.193,0.89,0.43,1.302,0.697c0.294,0.191,0.661,0.709,0.786,0.649
	c0.881-0.425,0.812,0.528,1.381,0.877c0.253-0.3,0.487-0.659,0.802-0.92c0.224-0.188,0.558-0.249,0.843-0.365
	c0.116,0.468,0.246,0.935,0.316,1.409c0.005,0.027-0.525,0.252-0.7,0.167c-0.663-0.322-0.968-0.045-1.332,0.493
	c-0.246,0.365-0.699,0.745-1.109,0.814c-1.07,0.182-1.38,0.943-1.59,1.792c-0.175,0.708,0.395,1.317,1.099,1.489
	c1.076,0.262,2.156,0.567,3.169,1.002c0.318,0.136,0.45,0.741,0.638,1.145c0.309,0.665,0.707,0.92,1.383,0.306
	c-0.389-0.7-0.406-1.268,0.428-1.807c0.818-0.529-0.104-0.869-0.296-1.178c0.045-0.727,0.084-1.365,0.124-2.013
	c1.495-0.328,2.644,0.22,3.359,1.5c0.125,0.226,0.669,0.342,0.99,0.299c0.348-0.046,0.662-0.34,1.075-0.573
	c0.18,0.244,0.489,0.49,0.563,0.793c0.331,1.392,1.804,1.457,2.603,2.303c0.439,0.465,0.281,0.692-0.141,0.94
	c-0.437,0.257-0.884,0.495-1.39,0.777c-1.301-0.442-2.987-0.081-3.853,0.97c0.428-0.204,0.735-0.412,1.072-0.492
	c0.32-0.076,0.67-0.017,0.849-0.017c0.041,0.522,0.074,0.943,0.118,1.515c-0.309,0.169-0.758,0.394-1.185,0.656
	c-0.521,0.319-1.261,0.402-1.304,1.263c-0.006,0.133-0.423,0.235-0.636,0.373c-0.536,0.348-1.09,0.679-1.583,1.083
	c-0.157,0.129-0.223,0.485-0.187,0.713c0.194,1.192,0.011,1.573-1.175,2.163c-0.564,0.28-1.009,0.595-0.718,1.336
	c0.185,0.472,0.378,0.946,0.492,1.437c0.067,0.285-0.013,0.605-0.025,0.909c-0.104,0.036-0.207,0.072-0.309,0.108
	c-0.198-0.39-0.436-0.764-0.584-1.171c-0.35-0.957-2.116-1.623-2.996-1.115c-0.193,0.111-0.436,0.26-0.63,0.229
	c-1.606-0.251-2.418,0.37-2.429,1.979c-0.006,0.825,0.009,1.672,0.193,2.47c0.152,0.667,0.703,1.021,1.46,1.05
	c0.708,0.026,0.942-0.373,1.157-0.932c0.092-0.239,0.359-0.476,0.603-0.574c0.198-0.08,0.519-0.013,0.707,0.11
	c0.093,0.061,0.05,0.408-0.008,0.604c-0.178,0.602-0.395,1.192-0.642,1.926c0.735,0,1.313-0.131,1.769,0.048
	c0.294,0.113,0.421,0.677,0.599,1.051c0.064,0.135,0.109,0.324,0.065,0.455c-0.423,1.248-0.103,1.729,1.399,1.842
	c-0.153,0.298-0.245,0.593-0.438,0.775c-0.062,0.057-0.453-0.145-0.614-0.307C38.145,47.443,37.438,46.672,36.717,45.916z
	 M39.31,55.114c0.035-0.385,0.008-0.644,0.089-0.862c0.167-0.442,0.417-0.816,0.053-1.329c-0.125-0.176,0.045-0.776,0.265-0.945
	c1.128-0.871,0.981-2.003,0.785-3.173c-0.047-0.284-0.07-0.571-0.08-0.643c0.561-0.481,1.041-0.827,1.442-1.249
	c0.724-0.764,1.551-0.477,2.313-0.21c0.784,0.274,1.401,0.829,2.401,0.624c0.482-0.1,1.151,0.582,1.698,0.964
	c0.516,0.361,0.981,0.795,1.564,1.275C47.051,52.486,43.582,54.368,39.31,55.114z"/>
</svg>
