<?xml version="1.0" encoding="utf-8"?>
<!-- Generator: Adobe Illustrator 16.0.0, SVG Export Plug-In . SVG Version: 6.00 Build 0)  -->
<!DOCTYPE svg PUBLIC "-//W3C//DTD SVG 1.1//EN" "http://www.w3.org/Graphics/SVG/1.1/DTD/svg11.dtd">
<svg version="1.1" id="Layer_1" xmlns="http://www.w3.org/2000/svg" xmlns:xlink="http://www.w3.org/1999/xlink" x="0px" y="0px"
	 width="72px" height="72px" viewBox="0 0 72 72" enable-background="new 0 0 72 72" xml:space="preserve">
<circle fill="#82AF40" cx="36" cy="36" r="36"/>
<g>
	<path fill="#FFFFFF" d="M29.566,38.98v9.699H42.42V38.98c-1.956-0.147-4.133-0.147-6.424-0.147
		C33.706,38.833,31.529,38.833,29.566,38.98z"/>
	<path fill="#FFFFFF" d="M20.43,46.537c0,2.806,0.375,6.202,1.065,9.752h5.373V39.315C22.968,40.046,20.43,41.888,20.43,46.537z"/>
	<path fill="#FFFFFF" d="M45.126,39.315v16.974h5.379c0.689-3.55,1.065-6.946,1.065-9.752C51.57,41.888,49.032,40.046,45.126,39.315
		z"/>
	<path fill="#FFFFFF" d="M43.776,26.388v-0.006c-0.02-0.074-0.04-0.147-0.066-0.214h-1.708c0.013,0.02,0.021,0.033,0.027,0.054
		c0.308,0.823,0.482,1.728,0.482,2.673c0,1.044-0.208,2.036-0.589,2.927c-1.032,2.451-3.329,4.16-5.995,4.16
		c-2.693,0-5.003-1.742-6.022-4.24c-0.362-0.871-0.556-1.835-0.556-2.846c0-0.912,0.161-1.789,0.456-2.593
		c0.02-0.047,0.033-0.094,0.054-0.134h-1.715c-0.013,0.033-0.02,0.067-0.033,0.1c-0.965,0.396-1.648,1.487-1.648,2.773
		c0,1.333,0.737,2.458,1.755,2.813c1.125,3.41,4.153,5.854,7.71,5.854c3.59,0,6.645-2.492,7.75-5.955
		c0.884-0.442,1.507-1.487,1.507-2.713C45.183,27.862,44.607,26.85,43.776,26.388z"/>
	<path fill="#FFFFFF" d="M28.304,25.691h1.762c0-0.006,0.006-0.013,0.006-0.02h11.715c0,0.006,0.006,0.013,0.006,0.02h1.762
		c0-0.006-0.006-0.013-0.006-0.02h1.987v-2.572h-0.815c-0.153-1.547-0.77-2.974-1.714-4.153l-2.847,2.398l-1.38,1.159l-0.71,0.596
		l3.141-5.821c-1.434-0.984-3.195-1.567-5.111-1.567c-2.029,0-3.884,0.656-5.358,1.755l3.048,5.633l-0.717-0.603L31.7,21.337
		l-2.64-2.217c-0.87,1.139-1.433,2.505-1.574,3.979h-0.894v2.572h1.717C28.31,25.678,28.304,25.685,28.304,25.691z"/>
</g>
</svg>
