<?xml version="1.0" encoding="utf-8"?>
<!-- Generator: Adobe Illustrator 16.0.0, SVG Export Plug-In . SVG Version: 6.00 Build 0)  -->
<!DOCTYPE svg PUBLIC "-//W3C//DTD SVG 1.1//EN" "http://www.w3.org/Graphics/SVG/1.1/DTD/svg11.dtd">
<svg version="1.1" id="Layer_1" xmlns="http://www.w3.org/2000/svg" xmlns:xlink="http://www.w3.org/1999/xlink" x="0px" y="0px"
	 width="72px" height="72px" viewBox="0 0 72 72" enable-background="new 0 0 72 72" xml:space="preserve">
<circle fill-rule="evenodd" clip-rule="evenodd" fill="#82AF40" cx="36" cy="36" r="36"/>
<path fill-rule="evenodd" clip-rule="evenodd" fill="#FFFFFF" d="M41.372,46.839c-3.094,0-6.142,0-9.262,0
	c-0.032,2.125-0.958,3.77-2.62,5c-1.091,0.808-2.352,1.142-3.691,1.117c-2.778-0.052-5.807-2.192-6.03-6.158
	c-0.721,0-1.454,0.004-2.187-0.002c-0.359-0.003-0.728,0.023-1.076-0.046c-0.665-0.132-1.217-0.427-1.302-1.208
	c-0.084-0.77,0.224-1.423,0.943-1.661c0.502-0.167,0.583-0.425,0.583-0.891c-0.006-3.136,0.016-6.272,0.028-9.408
	c0.004-1.064,0.447-1.94,1.178-2.678c1.484-1.498,2.97-2.994,4.475-4.47c0.843-0.827,1.875-1.235,3.064-1.232
	c1.155,0.003,2.311,0.001,3.592,0.001c0-1.111,0.001-2.18,0-3.248c-0.002-2.738,0.185-2.925,2.926-2.925c7.533,0,15.066,0,22.6,0
	c1.76,0,2.214,0.46,2.215,2.247c0,7.79,0,15.581,0,23.371c0,1.708-0.431,2.144-2.126,2.151c-0.3,0.001-0.601,0-0.88,0
	c-0.938,4.188-3.088,6.249-6.33,6.172C44.775,52.905,41.629,50.912,41.372,46.839z M29.004,34.436c0-2.055,0-4.085,0-6.157
	c-1.268,0-2.474-0.028-3.676,0.02c-0.291,0.012-0.627,0.219-0.848,0.434c-1.433,1.397-2.834,2.826-4.258,4.233
	c-0.427,0.422-0.541,0.889-0.371,1.47C22.884,34.436,25.882,34.436,29.004,34.436z M25.961,43.712c-1.667,0-3.093,1.422-3.095,3.087
	c-0.002,1.66,1.429,3.091,3.095,3.094c1.659,0.002,3.097-1.435,3.095-3.094C29.055,45.135,27.628,43.712,25.961,43.712z
	 M47.56,49.893c1.663,0.003,3.098-1.423,3.104-3.085c0.006-1.661-1.421-3.092-3.087-3.095c-1.666-0.003-3.093,1.413-3.103,3.079
	C44.463,48.446,45.9,49.889,47.56,49.893z"/>
</svg>
