<?xml version="1.0" encoding="utf-8"?>
<!-- Generator: Adobe Illustrator 16.0.0, SVG Export Plug-In . SVG Version: 6.00 Build 0)  -->
<!DOCTYPE svg PUBLIC "-//W3C//DTD SVG 1.1//EN" "http://www.w3.org/Graphics/SVG/1.1/DTD/svg11.dtd">
<svg version="1.1" id="Layer_1" xmlns="http://www.w3.org/2000/svg" xmlns:xlink="http://www.w3.org/1999/xlink" x="0px" y="0px"
	 width="72px" height="72px" viewBox="0 0 72 72" enable-background="new 0 0 72 72" xml:space="preserve">
<circle fill-rule="evenodd" clip-rule="evenodd" fill="#C32C2B" cx="36" cy="36" r="36"/>
<g>
	<path fill-rule="evenodd" clip-rule="evenodd" fill="#FFFFFF" d="M17.846,50.24c0.573-0.573,1.094-1.196,1.709-1.874
		c0.65,0.688,1.149,1.24,1.675,1.767c0.982,0.984,1.704,0.992,2.671,0.017c0.54-0.542,1.04-1.123,1.64-1.777
		c0.671,0.713,1.212,1.329,1.798,1.9c0.826,0.806,1.577,0.805,2.404-0.003c0.585-0.572,1.125-1.189,1.808-1.916
		c0.421,0.489,0.737,0.904,1.102,1.273c1.651,1.667,2.044,1.669,3.673,0.027c0.376-0.379,0.716-0.796,1.131-1.261
		c0.658,0.689,1.176,1.258,1.723,1.799c0.916,0.906,1.659,0.913,2.565,0.003c0.557-0.558,1.068-1.161,1.567-1.707
		c0.178,0.101,0.203,0.11,0.22,0.126c0.55,0.538,1.093,1.083,1.647,1.616c0.889,0.854,1.633,0.857,2.517-0.02
		c0.562-0.559,1.086-1.155,1.606-1.714c0.153,0.094,0.203,0.114,0.237,0.147c0.513,0.505,1.021,1.015,1.536,1.519
		c0.958,0.939,1.679,0.95,2.62,0.011c0.553-0.55,1.073-1.135,1.674-1.775c0.701,0.769,1.286,1.411,1.796,1.97
		c0.762-0.717,1.458-1.374,2.219-2.092c-0.913-0.896-1.811-1.781-2.715-2.663c-0.925-0.901-1.666-0.915-2.57-0.011
		c-0.558,0.556-1.07,1.158-1.683,1.828c-0.702-0.741-1.259-1.376-1.865-1.96c-0.656-0.634-1.271-0.692-1.952-0.258
		c-0.199,0.126-0.383,0.274-0.645,0.464c-0.023-0.221-0.051-0.363-0.051-0.506c-0.003-1.913-0.018-3.826,0.013-5.738
		c0.005-0.32,0.146-0.677,0.326-0.951c1.456-2.219,2.943-4.417,4.406-6.631c0.759-1.147,0.417-2.125-0.876-2.557
		c-1.011-0.338-2.018-0.689-3.046-0.97c-0.623-0.17-0.865-0.449-0.844-1.131c0.057-1.762,0.021-3.527,0.017-5.29
		c-0.001-0.262-0.024-0.523-0.042-0.854c-1.007,0-1.937,0-2.941,0c0-1.008,0-1.941,0-2.975c-2.017,0-3.959,0-5.978,0
		c0-1.032,0-1.963,0-2.916c-2.001,0-3.924,0-5.919,0c0,0.983,0,1.918,0,2.949c-2.017,0-3.961,0-5.976,0c0,1.032,0,1.968,0,2.973
		c-1.005,0-1.939,0-2.958,0c0,0.336,0,0.602,0,0.868c0,1.788-0.018,3.577,0.011,5.365c0.009,0.527-0.131,0.798-0.669,0.949
		c-1.025,0.286-2.026,0.66-3.041,0.987c-1.516,0.489-1.855,1.393-0.987,2.702c1.372,2.067,2.742,4.135,4.144,6.181
		c0.381,0.558,0.577,1.106,0.556,1.793c-0.045,1.463-0.128,2.942,0.019,4.392c0.143,1.411-0.584,2.187-1.616,2.955
		c-0.282-0.297-0.552-0.586-0.828-0.87c-0.277-0.285-0.555-0.569-0.843-0.843c-0.869-0.827-1.615-0.843-2.462-0.003
		c-0.577,0.572-1.104,1.194-1.729,1.877c-0.703-0.779-1.284-1.423-1.787-1.98c-0.783,0.721-1.487,1.369-2.238,2.062
		c0.938,0.929,1.845,1.844,2.771,2.739C16.244,51.084,16.995,51.087,17.846,50.24z M27.097,24.039c0.957,0,1.891,0,2.899,0
		c0-1,0-1.933,0-2.919c4.009,0,7.943,0,11.994,0c0,0.986,0,1.918,0,2.919c1.008,0,1.942,0,2.921,0c0,1,0,1.93,0,2.97
		c-0.987-0.317-1.921-0.61-2.85-0.919c-1.811-0.604-3.612-1.238-5.433-1.808c-0.389-0.122-0.882-0.125-1.268-0.001
		c-2.734,0.878-5.453,1.804-8.264,2.744C27.097,26,27.097,25.054,27.097,24.039z"/>
	<path fill-rule="evenodd" clip-rule="evenodd" fill="#FFFFFF" d="M54.124,51.543c-0.563,0.557-1.088,1.153-1.757,1.867
		c-0.547-0.612-0.99-1.146-1.474-1.639c-1.142-1.163-1.806-1.167-2.937-0.026c-0.499,0.502-0.965,1.038-1.504,1.619
		c-0.656-0.687-1.175-1.254-1.722-1.795c-0.911-0.898-1.664-0.901-2.568,0.011c-0.553,0.557-1.056,1.164-1.648,1.824
		c-0.694-0.729-1.225-1.32-1.791-1.875c-0.856-0.84-1.612-0.844-2.462-0.014c-0.567,0.554-1.099,1.145-1.773,1.851
		c-0.651-0.693-1.191-1.311-1.777-1.88c-0.828-0.806-1.578-0.799-2.398,0.019c-0.58,0.575-1.117,1.194-1.765,1.893
		c-0.643-0.69-1.167-1.288-1.73-1.847c-0.882-0.875-1.633-0.876-2.514-0.005c-0.563,0.557-1.087,1.156-1.733,1.849
		c-0.612-0.662-1.115-1.242-1.656-1.785c-0.945-0.948-1.687-0.956-2.618-0.018c-0.551,0.554-1.055,1.154-1.678,1.84
		c-0.724-0.811-1.3-1.457-1.765-1.976c-0.763,0.729-1.455,1.391-2.181,2.085c0.898,0.886,1.808,1.803,2.738,2.698
		c0.832,0.799,1.581,0.801,2.406-0.007c0.584-0.572,1.125-1.188,1.805-1.914c0.423,0.49,0.741,0.905,1.105,1.273
		c1.649,1.667,2.044,1.669,3.673,0.025c0.376-0.38,0.714-0.797,1.126-1.26c0.663,0.692,1.182,1.26,1.728,1.801
		c0.916,0.906,1.659,0.911,2.566,0c0.555-0.558,1.065-1.162,1.67-1.828c0.638,0.679,1.136,1.233,1.661,1.761
		c1.001,1.004,1.712,1,2.725-0.023c0.522-0.528,1.009-1.09,1.599-1.73c0.661,0.705,1.201,1.322,1.785,1.895
		c0.827,0.809,1.579,0.811,2.405,0.007c0.586-0.57,1.127-1.187,1.795-1.896c0.619,0.667,1.136,1.266,1.695,1.823
		c0.907,0.904,1.653,0.901,2.565-0.016c0.552-0.557,1.058-1.16,1.649-1.813c0.688,0.723,1.221,1.313,1.787,1.869
		c0.858,0.84,1.608,0.848,2.458,0.012c0.579-0.572,1.113-1.19,1.789-1.917c0.688,0.787,1.272,1.453,1.735,1.983
		c0.762-0.734,1.449-1.396,2.169-2.091c-0.866-0.858-1.76-1.755-2.666-2.64C55.75,50.684,55.003,50.674,54.124,51.543z"/>
</g>
</svg>
