<?xml version="1.0" encoding="utf-8"?>
<!-- Generator: Adobe Illustrator 16.0.0, SVG Export Plug-In . SVG Version: 6.00 Build 0)  -->
<!DOCTYPE svg PUBLIC "-//W3C//DTD SVG 1.1//EN" "http://www.w3.org/Graphics/SVG/1.1/DTD/svg11.dtd">
<svg version="1.1" id="Layer_1" xmlns="http://www.w3.org/2000/svg" xmlns:xlink="http://www.w3.org/1999/xlink" x="0px" y="0px"
	 width="72px" height="72px" viewBox="0 0 72 72" enable-background="new 0 0 72 72" xml:space="preserve">
<g>
	<circle fill-rule="evenodd" clip-rule="evenodd" fill="#BCBEC0" cx="36.127" cy="30.888" r="12.03"/>
	<path fill-rule="evenodd" clip-rule="evenodd" fill="#BCBEC0" d="M36.129,0.917c-19.351,0-35.036,15.685-35.036,35.036
		C1.093,55.304,16.778,71,36.129,71c19.351,0,35.036-15.696,35.036-35.048C71.165,16.601,55.479,0.917,36.129,0.917z M57.065,56.733
		c-0.41-7.734-4.176-10.518-9.697-11.512c-3.151,2.313-7.036,3.666-11.24,3.666s-8.088-1.353-11.239-3.666
		c-5.522,0.994-9.287,3.777-9.698,11.51c-5.292-5.333-8.564-12.674-8.564-20.78c0-16.292,13.21-29.502,29.502-29.502
		c16.292,0,29.502,13.21,29.502,29.502C65.631,44.059,62.358,51.401,57.065,56.733z"/>
</g>
</svg>
